<?xml version="1.0" encoding="utf-8"?>
<!-- Generator: Adobe Illustrator 23.0.1, SVG Export Plug-In . SVG Version: 6.00 Build 0)  -->
<svg version="1.1" id="Layer_1" xmlns="http://www.w3.org/2000/svg" xmlns:xlink="http://www.w3.org/1999/xlink" x="0px" y="0px"
	 viewBox="0 0 1504.3 338.8" style="enable-background:new 0 0 1504.3 338.8;" xml:space="preserve">
<style type="text/css">
	.st0{fill:#5F45FD;}
	.st1{fill:#F3AEC7;}
	.st2{fill:#E3DFFC;}
	.st3{fill:#E7BB41;}
	.st4{enable-background:new    ;}
</style>
<title>casama</title>
<path class="st0" d="M306.9,218c18.6-81.2-30.2-162.6-110.5-184.5l-10.6,46.4c20.7,6.1,39,18.2,52.7,34.8l12.3-6.4l21.4,41
	l-12.4,6.5c4.5,16.9,4.8,34.6,0.9,51.6c-0.8,3.6-1.8,7.1-3,10.5l44.1,17.7C303.8,229.9,305.5,224,306.9,218z"/>
<path class="st1" d="M13.6,119.9l44.3,17.8c6.7-14.4,16.5-27,28.7-37.1l-6.4-12.3l41-21.5l6.5,12.5c14.8-4,30.3-4.7,45.4-2.2
	l10.6-46.4C113.2,17.6,42.9,54.5,13.6,119.9z"/>
<path class="st2" d="M3.9,148.8c-8.8,38.1-2.8,78.1,16.8,112l40.3-25.3c-3.5-6.3-6.3-12.9-8.4-19.8L38.9,217L34.5,171l14-1.3
	c0.4-3.4,1-6.8,1.8-10.3c0.7-3.2,1.6-6.5,2.7-9.6L8.8,132C6.8,137.5,5.2,143.1,3.9,148.8z"/>
<path class="st3" d="M120.8,334.9c73.2,16.7,146.2-21.3,176.1-87.1L252.7,230c-13,27.1-36.8,47.6-65.6,56.5l1.2,13.7l-46.1,4.1
	l-1.2-14c-3.2-0.4-6.4-1-9.6-1.7c-25.5-5.8-48.1-20.7-63.4-42l-40.3,25.3C49.7,303.8,82.9,326.3,120.8,334.9z"/>
<g class="st4">
	<path class="st0" d="M524,215.7c4.3,0,7.8,1.4,10.7,4.2c2.8,2.8,4.2,6.4,4.2,10.7c0,4.2-1.6,7.9-4.7,11
		c-14.8,13-32.2,19.5-52.3,19.5c-22.1,0-41-7.8-56.7-23.5c-15.7-15.7-23.5-34.5-23.5-56.7c0-22.1,7.8-41,23.5-56.7
		c15.6-15.6,34.5-23.5,56.7-23.5c20.1,0,37.6,6.5,52.3,19.5c3.4,3.1,5.2,6.8,5.2,11.3c0,4.3-1.4,7.9-4.2,10.7
		c-2.8,2.9-6.4,4.3-10.7,4.3c-3.6,0-6.9-1.1-9.7-3.4c-4.9-4.1-10-7.2-15.3-9.3c-5.3-2.1-11.2-3.1-17.5-3.1c-7,0-13.5,1.3-19.6,3.9
		c-6.1,2.6-11.5,6.2-16,10.7c-4.6,4.5-8.2,9.9-10.8,16c-2.6,6.1-3.9,12.6-3.9,19.6c0,7,1.3,13.5,3.9,19.6c2.6,6.1,6.2,11.4,10.8,16
		c4.6,4.5,9.9,8.1,16,10.7c6.1,2.6,12.6,3.9,19.6,3.9c6.3,0,12.1-1,17.5-3.1c5.3-2.1,10.4-5.1,15.2-9.2
		C517.2,216.9,520.3,215.8,524,215.7z"/>
	<path class="st0" d="M692.7,246.2v-2.9c-7.2,5.7-14.9,10.1-23.3,13.2c-8.4,3.1-17.4,4.6-26.9,4.6c-22.1,0-41-7.8-56.7-23.5
		c-15.7-15.7-23.5-34.5-23.5-56.7c0-22.1,7.8-41,23.5-56.7c15.7-15.6,34.5-23.5,56.7-23.5c21.9,0,40.8,7.8,56.7,23.5
		c15.7,15.7,23.5,34.5,23.5,56.7v65.3c0,4.1-1.5,7.6-4.4,10.5c-2.9,2.9-6.4,4.4-10.5,4.4c-4.2,0-7.8-1.5-10.7-4.4
		C694.2,253.8,692.7,250.3,692.7,246.2z M642.5,130.7c-7.1,0-13.6,1.3-19.8,4c-6.1,2.7-11.4,6.3-15.9,10.8c-4.5,4.5-8,9.9-10.7,16
		c-2.6,6.1-3.9,12.6-3.9,19.5s1.3,13.4,3.9,19.5c2.6,6.1,6.2,11.4,10.7,16c4.5,4.5,9.8,8.1,15.9,10.8c6.1,2.7,12.7,4,19.8,4
		c7,0,13.5-1.3,19.6-4c6.1-2.7,11.4-6.3,16-10.9c4.5-4.6,8.1-9.9,10.7-16c2.6-6.1,3.9-12.5,3.9-19.4s-1.3-13.3-3.9-19.4
		c-2.6-6.1-6.2-11.4-10.7-16c-4.5-4.6-9.9-8.2-16-10.9C656,132,649.5,130.7,642.5,130.7z"/>
	<path class="st0" d="M774.8,184.8c-9-3.4-15.3-7-18.9-10.6h0.1c-7.3-7.3-10.9-16-10.9-25.9c0-7.3,1.9-13.8,5.8-19.7
		c3.9-5.9,8.9-10.9,15.1-15c6.2-4.1,13.2-7.3,21-9.5c7.8-2.2,15.6-3.4,23.4-3.4c23.9,0,44.3,9.6,61.4,28.8c2,2.5,3,5.5,3,9
		c0,4.3-1.4,7.9-4.2,10.7c-2.8,2.8-6.4,4.2-10.7,4.2c-3.1,0-5.7-0.9-7.8-2.6c-2.1-1.7-4.2-3.6-6.2-5.6c-9.7-9.7-21.6-14.6-35.5-14.6
		c-13.7,0-24.7,4.2-32.9,12.6c-1.5,1.5-2.3,3.6-2.3,6.3c0,2.7,1.2,4.5,3.7,5.4l67,22c9.4,3.6,15.7,7.2,18.9,10.6h-0.1
		c7.3,7.3,10.9,16,10.9,25.9c0,7.3-1.9,13.9-5.8,19.8c-3.9,5.8-8.9,10.8-15.1,15c-6.2,4.2-13.2,7.3-20.9,9.5
		c-7.7,2.2-15.5,3.3-23.3,3.3c-24,0-44.5-9.5-61.4-28.5c-2.1-2.8-3.1-5.9-3.1-9.3c0-4.3,1.4-7.8,4.2-10.7c2.8-2.8,6.4-4.2,10.7-4.2
		c3.1,0,5.8,0.9,8,2.8c2.2,1.9,4.2,3.7,6,5.4c9.7,9.7,21.6,14.6,35.6,14.6c13.6,0,24.6-4.3,32.9-12.9c1.4-1.6,2.1-3.6,2.1-5.9
		c0-2.7-1.3-4.5-3.9-5.6L774.8,184.8z"/>
	<path class="st0" d="M1027.7,246.2v-2.9c-7.2,5.7-14.9,10.1-23.3,13.2c-8.4,3.1-17.4,4.6-26.9,4.6c-22.1,0-41-7.8-56.7-23.5
		c-15.7-15.7-23.5-34.5-23.5-56.7c0-22.1,7.8-41,23.5-56.7c15.7-15.6,34.5-23.5,56.7-23.5c21.9,0,40.8,7.8,56.7,23.5
		c15.7,15.7,23.5,34.5,23.5,56.7v65.3c0,4.1-1.5,7.6-4.4,10.5c-2.9,2.9-6.4,4.4-10.5,4.4c-4.2,0-7.8-1.5-10.7-4.4
		C1029.2,253.8,1027.7,250.3,1027.7,246.2z M977.5,130.7c-7.1,0-13.6,1.3-19.8,4c-6.1,2.7-11.4,6.3-15.9,10.8
		c-4.5,4.5-8,9.9-10.7,16c-2.6,6.1-3.9,12.6-3.9,19.5s1.3,13.4,3.9,19.5c2.6,6.1,6.2,11.4,10.7,16c4.5,4.5,9.8,8.1,15.9,10.8
		c6.1,2.7,12.7,4,19.8,4c7,0,13.5-1.3,19.6-4c6.1-2.7,11.4-6.3,16-10.9c4.5-4.6,8.1-9.9,10.7-16c2.6-6.1,3.9-12.5,3.9-19.4
		s-1.3-13.3-3.9-19.4c-2.6-6.1-6.2-11.4-10.7-16c-4.5-4.6-9.9-8.2-16-10.9C991,132,984.4,130.7,977.5,130.7z"/>
	<path class="st0" d="M1306.9,246.1c0,4.2-1.5,7.8-4.4,10.7c-2.9,2.9-6.4,4.4-10.5,4.4c-4.2,0-7.7-1.5-10.6-4.4
		c-2.9-2.9-4.3-6.5-4.3-10.7v-81.5c0-4.6-0.9-8.9-2.6-13c-1.8-4.1-4.2-7.7-7.2-10.8c-3.1-3.1-6.7-5.6-10.8-7.4
		c-4.2-1.8-8.6-2.7-13.4-2.7c-4.7,0-9.1,0.9-13.2,2.7c-4.1,1.8-7.7,4.2-10.8,7.3c-3.1,3.1-5.5,6.6-7.3,10.7
		c-1.8,4.1-2.6,8.5-2.6,13.2v81.5c0,4.2-1.5,7.8-4.4,10.7c-2.9,2.9-6.4,4.4-10.5,4.4c-4.2,0-7.8-1.5-10.7-4.4
		c-2.9-2.9-4.4-6.5-4.4-10.7v-81.5c0-4.7-0.9-9.1-2.7-13.2c-1.8-4.1-4.2-7.7-7.3-10.7c-3.1-3.1-6.6-5.5-10.7-7.3
		c-4.1-1.8-8.5-2.7-13.2-2.7c-4.7,0-9.1,0.9-13.2,2.6c-4.1,1.8-7.7,4.2-10.8,7.3c-3.1,3.1-5.5,6.7-7.3,10.8
		c-1.8,4.1-2.6,8.5-2.6,13.2v81.5c0,4.2-1.5,7.8-4.4,10.7c-2.9,2.9-6.4,4.4-10.5,4.4c-4.2,0-7.8-1.5-10.7-4.4
		c-2.9-2.9-4.4-6.5-4.4-10.7V115.7c0-4.1,1.5-7.6,4.4-10.5c2.9-2.9,6.4-4.4,10.5-4.4c3.3,0,6.3,0.9,8.9,2.8c2.6,1.9,4.3,4.3,5.3,7.4
		c10.2-6.8,21.8-10.2,34.8-10.2c9.5,0,18.5,1.9,26.9,5.7c8.4,3.8,15.7,9.5,22,17.1c13.3-15.2,29.5-22.8,48.8-22.8
		c8.7,0,16.9,1.7,24.7,5.1c7.8,3.4,14.6,8,20.3,13.7c5.8,5.8,10.4,12.6,13.7,20.3c3.4,7.8,5.1,16,5.1,24.7V246.1z"/>
	<path class="st0" d="M1462.9,246.2v-2.9c-7.2,5.7-14.9,10.1-23.3,13.2c-8.4,3.1-17.4,4.6-26.9,4.6c-22.1,0-41-7.8-56.7-23.5
		c-15.7-15.7-23.5-34.5-23.5-56.7c0-22.1,7.8-41,23.5-56.7c15.7-15.6,34.5-23.5,56.7-23.5c21.9,0,40.8,7.8,56.7,23.5
		c15.7,15.7,23.5,34.5,23.5,56.7v65.3c0,4.1-1.5,7.6-4.4,10.5c-2.9,2.9-6.4,4.4-10.5,4.4c-4.2,0-7.8-1.5-10.7-4.4
		C1464.3,253.8,1462.9,250.3,1462.9,246.2z M1412.6,130.7c-7.1,0-13.6,1.3-19.8,4c-6.1,2.7-11.4,6.3-15.9,10.8
		c-4.5,4.5-8,9.9-10.7,16c-2.6,6.1-3.9,12.6-3.9,19.5s1.3,13.4,3.9,19.5c2.6,6.1,6.2,11.4,10.7,16c4.5,4.5,9.8,8.1,15.9,10.8
		c6.1,2.7,12.7,4,19.8,4c7,0,13.5-1.3,19.6-4c6.1-2.7,11.4-6.3,16-10.9c4.5-4.6,8.1-9.9,10.7-16c2.6-6.1,3.9-12.5,3.9-19.4
		s-1.3-13.3-3.9-19.4c-2.6-6.1-6.2-11.4-10.7-16c-4.5-4.6-9.9-8.2-16-10.9C1426.1,132,1419.6,130.7,1412.6,130.7z"/>
</g>
</svg>
