<svg id="Layer_1" data-name="Layer 1" xmlns="http://www.w3.org/2000/svg" viewBox="0 0 1504.28 338.8"><defs><style>.cls-1,.cls-2{fill:#231f20;}.cls-2{font-size:293.17px;font-family:Comfortaa-Bold, Comfortaa;font-weight:700;}</style></defs><title>casama-blk</title><path class="cls-1" d="M312.43,547.77A155.35,155.35,0,0,0,201.89,363.26l-10.6,46.37A107.29,107.29,0,0,1,244,444.47l12.27-6.39,21.39,41.05-12.43,6.48a107.52,107.52,0,0,1,.86,51.58,101.3,101.3,0,0,1-3,10.52l44.14,17.7A152.52,152.52,0,0,0,312.43,547.77Z" transform="translate(-5.55 -329.76)"/><path class="cls-1" d="M19.1,449.64l44.25,17.78a107.09,107.09,0,0,1,28.73-37.14L85.65,418l41-21.52L133.17,409a107.17,107.17,0,0,1,45.43-2.23l10.6-46.37A155.49,155.49,0,0,0,19.1,449.64Z" transform="translate(-5.55 -329.76)"/><path class="cls-1" d="M9.49,478.54a154.4,154.4,0,0,0,16.84,112l40.29-25.3a107.06,107.06,0,0,1-8.43-19.79L44.42,546.8,40,500.72l14-1.33q.66-5.11,1.82-10.25a83.57,83.57,0,0,1,2.73-9.59L14.32,461.76A154.51,154.51,0,0,0,9.49,478.54Z" transform="translate(-5.55 -329.76)"/><path class="cls-1" d="M126.35,664.63c73.19,16.72,146.16-21.33,176.08-87.11l-44.2-17.77a107.87,107.87,0,0,1-65.59,56.46l1.21,13.69L147.73,634l-1.23-14c-3.18-.43-6.37-1-9.56-1.73a107.56,107.56,0,0,1-63.42-42l-40.29,25.3A154.68,154.68,0,0,0,126.35,664.63Z" transform="translate(-5.55 -329.76)"/><text class="cls-2" transform="translate(390.56 261.11)">casama</text></svg>