<svg width="162" height="30" viewBox="0 0 162 30" fill="none" xmlns="http://www.w3.org/2000/svg">
<path fill-rule="evenodd" clip-rule="evenodd" d="M21.7845 23.4384C21.9855 23.2807 22.1811 23.1165 22.371 22.946L24.8172 25.3923C24.2026 25.9627 23.5377 26.4823 22.8286 26.944C20.3806 28.538 17.5149 29.3701 14.5939 29.3354C11.6729 29.3006 8.82779 28.4004 6.41838 26.7487C5.74955 26.2902 5.12263 25.7795 4.54267 25.2229L6.93536 22.8302C8.97902 24.7211 11.7129 25.8767 14.7167 25.8767L14.7541 25.8766C16.9496 25.8796 19.0995 25.2435 20.9408 24.0446C21.232 23.855 21.5135 23.6527 21.7845 23.4384ZM5.4854 21.2092C4.08414 19.3082 3.25601 16.9588 3.25601 14.416C3.25601 11.2197 4.5645 8.32895 6.67505 6.25029L4.45083 3.99911C4.4094 4.03957 4.36822 4.08026 4.3273 4.12117C3.54095 4.90728 2.84977 5.77573 2.26382 6.70825C1.34216 8.17501 0.680817 9.80027 0.318916 11.5129C-0.285042 14.371 -0.027916 17.344 1.05778 20.0559C1.56968 21.3346 2.25494 22.5282 3.08883 23.6058L5.4854 21.2092ZM26.2969 23.8009L23.844 21.348C25.3081 19.4231 26.1773 17.0211 26.1773 14.416C26.1773 11.3255 24.954 8.52067 22.9652 6.45937L25.3371 4.24772C25.4959 4.41038 25.6507 4.57642 25.8014 4.74569C26.4253 5.44651 26.9787 6.20258 27.4558 7.00271C28.344 8.49244 28.9676 10.1349 29.289 11.8577C29.8248 14.7294 29.497 17.6954 28.347 20.3807C27.8185 21.6149 27.1273 22.7643 26.2969 23.8009Z" fill="#0096FA"/>
<path fill-rule="evenodd" clip-rule="evenodd" d="M7.75502 6.89805C7.55403 7.05572 7.35845 7.21996 7.16859 7.39044L4.72232 4.94417C5.33698 4.37368 6.00182 3.85408 6.71093 3.39238C9.15896 1.79847 12.0247 0.966278 14.9457 1.00105C17.8667 1.03581 20.7118 1.93598 23.1212 3.58771C23.79 4.04621 24.4169 4.55692 24.9969 5.11351L22.6042 7.5062C20.5605 5.61535 17.8267 4.45977 14.8229 4.45977L14.7855 4.45983C12.59 4.45679 10.44 5.0929 8.59872 6.29179C8.3075 6.4814 8.02604 6.68376 7.75502 6.89805ZM24.0542 9.12723C25.4554 11.0282 26.2835 13.3776 26.2835 15.9204C26.2835 19.1168 24.975 22.0075 22.8645 24.0861L25.0887 26.3373C25.1302 26.2969 25.1713 26.2562 25.2123 26.2153C25.9986 25.4291 26.6898 24.5607 27.2757 23.6282C28.1974 22.1614 28.8587 20.5362 29.2206 18.8235C29.8246 15.9655 29.5675 12.9925 28.4818 10.2805C27.9699 9.00182 27.2846 7.80825 26.4507 6.73067L24.0542 9.12723ZM3.24269 6.53553L5.69557 8.98841C4.23141 10.9133 3.36224 13.3154 3.36224 15.9204C3.36224 19.0109 4.58553 21.8158 6.57433 23.8771L4.20244 26.0887C4.0436 25.926 3.8888 25.76 3.73811 25.5907C3.11421 24.8899 2.56082 24.1338 2.08377 23.3337C1.19556 21.844 0.571963 20.2015 0.250538 18.4787C-0.285221 15.6071 0.0425974 12.641 1.19254 9.95568C1.72104 8.72152 2.41228 7.57212 3.24269 6.53553Z" fill="#0096FA"/>
<path d="M111.796 21.294C111.488 21.294 111.138 21.252 110.746 21.168C110.368 21.084 109.997 20.979 109.633 20.853C109.269 20.727 108.947 20.594 108.667 20.454L109.192 19.929V25.557H107.68V12.411C107.68 11.977 107.813 11.627 108.079 11.361C108.359 11.095 108.716 10.892 109.15 10.752C109.584 10.598 110.046 10.493 110.536 10.437C111.026 10.367 111.488 10.332 111.922 10.332C112.762 10.332 113.553 10.507 114.295 10.857C115.037 11.207 115.639 11.802 116.101 12.642C116.563 13.468 116.794 14.595 116.794 16.023C116.794 17.101 116.598 18.039 116.206 18.837C115.828 19.621 115.268 20.23 114.526 20.664C113.784 21.084 112.874 21.294 111.796 21.294ZM111.796 19.908C112.566 19.908 113.196 19.747 113.686 19.425C114.19 19.089 114.568 18.627 114.82 18.039C115.072 17.451 115.198 16.779 115.198 16.023C115.198 15.267 115.114 14.56 114.946 13.902C114.778 13.244 114.456 12.719 113.98 12.327C113.504 11.921 112.811 11.718 111.901 11.718C111.173 11.718 110.536 11.802 109.99 11.97C109.458 12.138 109.192 12.376 109.192 12.684V19.173C109.626 19.425 110.06 19.614 110.494 19.74C110.928 19.852 111.362 19.908 111.796 19.908ZM123.768 21.315C122.13 21.315 120.912 20.832 120.114 19.866C119.33 18.886 118.938 17.528 118.938 15.792C118.938 13.972 119.351 12.607 120.177 11.697C121.017 10.787 122.2 10.332 123.726 10.332C124.86 10.332 125.784 10.563 126.498 11.025C127.212 11.473 127.737 12.11 128.073 12.936C128.409 13.748 128.577 14.7 128.577 15.792C128.577 17.514 128.157 18.865 127.317 19.845C126.491 20.825 125.308 21.315 123.768 21.315ZM123.747 19.929C124.601 19.929 125.266 19.747 125.742 19.383C126.218 19.005 126.554 18.508 126.75 17.892C126.96 17.262 127.065 16.562 127.065 15.792C127.065 14.966 126.96 14.252 126.75 13.65C126.54 13.034 126.19 12.558 125.7 12.222C125.224 11.886 124.573 11.718 123.747 11.718C122.907 11.718 122.249 11.9 121.773 12.264C121.297 12.628 120.954 13.118 120.744 13.734C120.548 14.336 120.45 15.022 120.45 15.792C120.45 17.024 120.695 18.025 121.185 18.795C121.675 19.551 122.529 19.929 123.747 19.929ZM135.552 21.315C133.914 21.315 132.696 20.832 131.898 19.866C131.114 18.886 130.722 17.528 130.722 15.792C130.722 13.972 131.135 12.607 131.961 11.697C132.801 10.787 133.984 10.332 135.51 10.332C136.644 10.332 137.568 10.563 138.282 11.025C138.996 11.473 139.521 12.11 139.857 12.936C140.193 13.748 140.361 14.7 140.361 15.792C140.361 17.514 139.941 18.865 139.101 19.845C138.275 20.825 137.092 21.315 135.552 21.315ZM135.531 19.929C136.385 19.929 137.05 19.747 137.526 19.383C138.002 19.005 138.338 18.508 138.534 17.892C138.744 17.262 138.849 16.562 138.849 15.792C138.849 14.966 138.744 14.252 138.534 13.65C138.324 13.034 137.974 12.558 137.484 12.222C137.008 11.886 136.357 11.718 135.531 11.718C134.691 11.718 134.033 11.9 133.557 12.264C133.081 12.628 132.738 13.118 132.528 13.734C132.332 14.336 132.234 15.022 132.234 15.792C132.234 17.024 132.479 18.025 132.969 18.795C133.459 19.551 134.313 19.929 135.531 19.929ZM144.542 21H143.03V6.531H144.542V21Z" fill="#0096FA"/>
<path d="M37.116 21L33.588 10.416H36.444L38.964 19.215L38.145 19.299L40.56 10.416H42.618L44.991 19.047H44.34L46.818 10.416H49.59L46.062 21H43.626L41.316 13.44L41.778 13.566L39.573 21H37.116ZM56.313 21.315C55.333 21.315 54.479 21.161 53.751 20.853C53.037 20.531 52.477 20.055 52.071 19.425C51.679 18.795 51.483 17.99 51.483 17.01V10.416H54.15V16.737C54.15 17.521 54.325 18.102 54.675 18.48C55.025 18.858 55.571 19.047 56.313 19.047C57.083 19.047 57.636 18.858 57.972 18.48C58.322 18.102 58.497 17.521 58.497 16.737V10.416H61.017V17.01C61.017 18.466 60.597 19.551 59.757 20.265C58.931 20.965 57.783 21.315 56.313 21.315ZM63.7792 11.298C64.0732 11.158 64.4232 11.018 64.8292 10.878C65.2352 10.738 65.6762 10.619 66.1522 10.521C66.6282 10.409 67.1042 10.325 67.5802 10.269C68.0702 10.199 68.5322 10.164 68.9662 10.164C69.9462 10.164 70.7582 10.297 71.4022 10.563C72.0602 10.815 72.5502 11.221 72.8722 11.781C73.2082 12.327 73.3762 13.048 73.3762 13.944V21H70.7302V14.406C70.7302 14.14 70.6952 13.888 70.6252 13.65C70.5552 13.398 70.4362 13.181 70.2682 12.999C70.1002 12.803 69.8692 12.656 69.5752 12.558C69.2812 12.446 68.9032 12.39 68.4412 12.39C68.0912 12.39 67.7342 12.425 67.3702 12.495C67.0062 12.565 66.6982 12.656 66.4462 12.768V21H63.7792V11.298ZM81.0089 21.315C80.2809 21.315 79.5879 21.231 78.9299 21.063C78.2719 20.895 77.6909 20.601 77.1869 20.181C76.6829 19.761 76.2839 19.18 75.9899 18.438C75.7099 17.696 75.5699 16.751 75.5699 15.603C75.5699 13.909 75.9829 12.572 76.8089 11.592C77.6349 10.612 78.8879 10.122 80.5679 10.122C80.8059 10.122 81.1139 10.15 81.4919 10.206C81.8699 10.262 82.2549 10.36 82.6469 10.5C83.0529 10.626 83.4029 10.829 83.6969 11.109L83.1089 11.949V6.027H85.7339V18.522C85.7339 18.998 85.5939 19.411 85.3139 19.761C85.0479 20.111 84.6839 20.405 84.2219 20.643C83.7599 20.867 83.2489 21.035 82.6889 21.147C82.1289 21.259 81.5689 21.315 81.0089 21.315ZM81.0929 19.047C81.6669 19.047 82.1429 18.977 82.5209 18.837C82.9129 18.697 83.1089 18.494 83.1089 18.228V12.852C82.8009 12.67 82.4719 12.537 82.1219 12.453C81.7719 12.369 81.4359 12.327 81.1139 12.327C80.4699 12.327 79.9379 12.446 79.5179 12.684C79.0979 12.908 78.7829 13.272 78.5729 13.776C78.3629 14.266 78.2579 14.896 78.2579 15.666C78.2579 16.338 78.3419 16.926 78.5099 17.43C78.6779 17.934 78.9649 18.333 79.3709 18.627C79.7909 18.907 80.3649 19.047 81.0929 19.047ZM93.1566 21.315C92.1066 21.315 91.1896 21.105 90.4056 20.685C89.6216 20.251 89.0126 19.621 88.5786 18.795C88.1446 17.969 87.9276 16.975 87.9276 15.813C87.9276 13.965 88.3686 12.558 89.2506 11.592C90.1466 10.612 91.3996 10.122 93.0096 10.122C94.1716 10.122 95.1026 10.374 95.8026 10.878C96.5166 11.382 97.0346 12.103 97.3566 13.041C97.6926 13.965 97.8536 15.071 97.8396 16.359H89.6496L89.4396 14.553H95.7186L95.2146 15.309C95.1866 14.203 94.9906 13.412 94.6266 12.936C94.2766 12.446 93.7096 12.201 92.9256 12.201C92.4496 12.201 92.0296 12.313 91.6656 12.537C91.3156 12.747 91.0426 13.104 90.8466 13.608C90.6646 14.112 90.5736 14.805 90.5736 15.687C90.5736 16.779 90.8326 17.619 91.3506 18.207C91.8686 18.781 92.6596 19.068 93.7236 19.068C94.1576 19.068 94.5706 19.026 94.9626 18.942C95.3686 18.844 95.7396 18.732 96.0756 18.606C96.4256 18.48 96.7196 18.361 96.9576 18.249V20.601C96.4676 20.811 95.9076 20.979 95.2776 21.105C94.6616 21.245 93.9546 21.315 93.1566 21.315ZM100.012 21V11.445C100.208 11.319 100.551 11.151 101.041 10.941C101.545 10.731 102.126 10.549 102.784 10.395C103.442 10.227 104.107 10.143 104.779 10.143C105.283 10.143 105.682 10.185 105.976 10.269C106.284 10.339 106.522 10.43 106.69 10.542V12.558C106.41 12.516 106.088 12.481 105.724 12.453C105.374 12.425 105.01 12.418 104.632 12.432C104.268 12.432 103.911 12.446 103.561 12.474C103.225 12.502 102.931 12.537 102.679 12.579V21H100.012Z" fill="#0096FA"/>
</svg>
