<?xml version="1.0" encoding="UTF-8" standalone="no"?>
<!DOCTYPE svg PUBLIC "-//W3C//DTD SVG 1.1//EN" "http://www.w3.org/Graphics/SVG/1.1/DTD/svg11.dtd">
<svg width="100%" height="100%" viewBox="0 0 667 134" version="1.1" xmlns="http://www.w3.org/2000/svg" xmlns:xlink="http://www.w3.org/1999/xlink" xml:space="preserve" xmlns:serif="http://www.serif.com/" style="fill-rule:evenodd;clip-rule:evenodd;stroke-linejoin:round;stroke-miterlimit:2;">
    <g transform="matrix(1.33333,0,0,1.33333,0,0)">
        <g>
            <clipPath id="_clip1">
                <rect x="188.592" y="0" width="122.816" height="52.737"/>
            </clipPath>
            <g clip-path="url(#_clip1)">
                <g transform="matrix(0.245632,0,0,0.660713,188.592,-12.0259)">
                    <clipPath id="_clip2">
                        <rect x="0" y="-43.423" width="500" height="99.038"/>
                    </clipPath>
                    <g clip-path="url(#_clip2)">
                        <path d="M500,-0.139C435.742,-0.139 383.573,-19.533 383.573,-43.423L116.427,-43.423C116.427,-19.533 64.258,-0.139 0,-0.139L0,18.778C64.258,18.778 116.427,38.173 116.427,62.062L383.573,62.062C383.573,38.173 435.742,18.778 500,18.778L500,-0.139Z" style="fill:rgb(95,69,253);"/>
                    </g>
                </g>
                <g transform="matrix(0.578551,0,0,0.652872,118.977,4.69329)">
                    <ellipse cx="226.467" cy="23.089" rx="57.835" ry="50.498" style="fill:rgb(95,69,253);"/>
                </g>
            </g>
        </g>
    </g>
</svg>
